Coordinates
version=1
nRows=60
nColumns=12
inDegrees=yes

Units are S.I. units (second, meters, Newtons, ...)
Angles are in degrees

endheader
time	SC_y	SC_z	SC_x	AC_y	AC_z	AC_x	GH_y	GH_z	GH_yy	EL_x	PS_y
       0.0              -41.36          29.46          60.39          51.52          -7.67         -10.01          131.8          2.572         -5.187          129.9          134.0
   0.03128              -41.36          29.46           60.4          51.53         -7.668         -10.01          131.8          2.576         -5.169          129.9          134.0
   0.06256              -41.36          29.46           60.4          51.53         -7.665         -10.01          131.8          2.581         -5.149          129.9          134.0
   0.09384              -41.36          29.46           60.4          51.53         -7.663         -10.01          131.8          2.586         -5.128          129.9          134.0
    0.1251              -41.36          29.47           60.4          51.54          -7.66         -10.01          131.8          2.591         -5.106          129.9          134.0
    0.1564              -41.36          29.47           60.4          51.54         -7.657         -10.02          131.8          2.597         -5.083          129.9          134.0
    0.1877              -41.36          29.47           60.4          51.54         -7.654         -10.02          131.8          2.603         -5.057          129.8          134.0
    0.2189              -41.36          29.47          60.41          51.55          -7.65         -10.02          131.8           2.61          -5.03          129.8          134.0
    0.2502              -41.36          29.47          60.41          51.55         -7.647         -10.02          131.8          2.617         -5.001          129.8          134.0
    0.2815              -41.36          29.48          60.41          51.56         -7.643         -10.02          131.7          2.624          -4.97          129.8          134.0
    0.3128              -41.36          29.48          60.41          51.56         -7.639         -10.02          131.7          2.632         -4.937          129.8          134.0
    0.3441              -41.36          29.48          60.41          51.57         -7.634         -10.02          131.7          2.641         -4.901          129.8          134.0
    0.3753              -41.36          29.49          60.42          51.57          -7.63         -10.02          131.7           2.65         -4.862          129.8          134.0
    0.4066              -41.36          29.49          60.42          51.58         -7.624         -10.02          131.7          2.661          -4.82          129.8          134.0
    0.4379              -41.36          29.49          60.42          51.58         -7.619         -10.03          131.7          2.671         -4.775          129.8          134.0
    0.4692              -41.36           29.5          60.43          51.59         -7.613         -10.03          131.7          2.683         -4.726          129.8          134.0
    0.5005              -41.36           29.5          60.43           51.6         -7.606         -10.03          131.6          2.696         -4.673          129.7          134.0
    0.5317              -41.36          29.51          60.43          51.61         -7.599         -10.03          131.6           2.71         -4.615          129.7          134.0
     0.563              -41.36          29.51          60.44          51.62         -7.591         -10.03          131.6          2.726         -4.551          129.7          134.0
    0.5943              -41.36          29.52          60.44          51.63         -7.582         -10.03          131.6          2.742         -4.482          129.7          134.0
    0.6256              -41.37          29.52          60.45          51.64         -7.573         -10.04          131.5          2.761         -4.406          129.7          134.0
    0.6568              -41.37          29.53          60.45          51.65         -7.562         -10.04          131.5          2.781         -4.322          129.6          134.0
    0.6881              -41.37          29.54          60.46          51.66         -7.551         -10.04          131.5          2.804         -4.229          129.6          134.0
    0.7194              -41.37          29.55          60.47          51.68         -7.538         -10.05          131.4          2.828         -4.126          129.6          133.9
    0.7507              -41.37          29.55          60.47          51.69         -7.524         -10.05          131.4          2.856         -4.012          129.6          133.9
     0.782              -41.37          29.56          60.48          51.71         -7.508         -10.05          131.3          2.887         -3.885          129.5          133.9
    0.8132              -41.37          29.58          60.49          51.73          -7.49         -10.06          131.3          2.921         -3.742          129.5          133.9
    0.8445              -41.38          29.59           60.5          51.76         -7.471         -10.06          131.2           2.96         -3.582          129.4          133.9
    0.8758              -41.38           29.6          60.52          51.78         -7.448         -10.07          131.2          3.004           -3.4          129.4          133.9
    0.9071              -41.38          29.62          60.53          51.81         -7.422         -10.08          131.1          3.054         -3.194          129.3          133.9
    0.9384              -41.38          29.64          60.54          51.85         -7.393         -10.08          131.0          3.111         -2.959          129.3          133.8
    0.9696              -41.39          29.66          60.56          51.89          -7.36         -10.09          130.9          3.176          -2.69          129.2          133.8
     1.001              -41.39          29.69          60.58          51.93         -7.321          -10.1          130.8          3.251         -2.378          129.1          133.8
     1.032              -41.39          29.72          60.61          51.98         -7.276         -10.12          130.7          3.339         -2.016          129.0          133.8
     1.063               -41.4          29.75          60.64          52.05         -7.224         -10.13          130.5          3.441         -1.593          128.9          133.7
     1.095              -41.41          29.79          60.67          52.12         -7.162         -10.15          130.3          3.562         -1.094          128.7          133.7
     1.126              -41.41          29.84          60.71           52.2         -7.088         -10.16          130.1          3.705        -0.5004          128.6          133.6
     1.157              -41.42           29.9          60.76          52.31           -7.0         -10.19          129.8          3.877         0.2106          128.4          133.6
     1.189              -41.43          29.97          60.82          52.43         -6.893         -10.22          129.5          4.086          1.071          128.1          133.5
      1.22              -41.44          30.05          60.89          52.58         -6.762         -10.25          129.1           4.34          2.122          127.8          133.4
     1.251              -41.46          30.16          60.97          52.77         -6.601         -10.29          128.7          4.653          3.419          127.5          133.3
     1.282              -41.48          30.29          61.08          53.01         -6.401         -10.35          128.1          5.045          5.036          127.0          133.2
     1.314               -41.5          30.45          61.22           53.3         -6.148         -10.41          127.3          5.537          7.073          126.5          133.0
     1.345              -41.54          30.66          61.39          53.68         -5.826          -10.5          126.4          6.164          9.663          125.7          132.8
     1.376              -41.58          30.93          61.62          54.16         -5.414          -10.6          125.2          6.966          12.98          124.8          132.5
     1.408              -41.63          31.27           61.9          54.77         -4.886         -10.74          123.6          7.995          17.23          123.6          132.2
     1.439              -41.69          31.71          62.27          55.56         -4.212         -10.92          121.6          9.309          22.67          122.1          131.7
      1.47              -41.78          32.26          62.73          56.55         -3.363         -11.14          119.1          10.96           29.5          120.2          131.2
     1.501              -41.88          32.94          63.29          57.75         -2.329         -11.42          116.1          12.98          37.83          117.9          130.5
     1.533               -42.0          33.72          63.94          59.15         -1.131         -11.73          112.6          15.31          47.48          115.2          129.7
     1.564              -42.12          34.56          64.65          60.66         0.1663         -12.07          108.7          17.84          57.93          112.2          128.8
     1.595              -42.25          35.41          65.35          62.18          1.464         -12.41          104.9          20.37          68.38          109.3          127.9
     1.626              -42.37          36.19           66.0          63.58          2.662         -12.73          101.4           22.7          78.03          106.6          127.1
     1.658              -42.47          36.86          66.56          64.78          3.696          -13.0          98.35          24.71          86.36          104.3          126.4
     1.689              -42.55          37.42          67.02          65.77          4.544         -13.22          95.85          26.37          93.19          102.4          125.9
      1.72              -42.62          37.86          67.39          66.56          5.219          -13.4          93.87          27.68          98.62          100.8          125.4
     1.752              -42.67           38.2          67.67          67.17          5.747         -13.54          92.31          28.71          102.9          99.66          125.1
     1.783              -42.71          38.47           67.9          67.65          6.159         -13.65           91.1          29.51          106.2          98.73          124.8
     1.814              -42.74          38.68          68.07          68.03           6.48         -13.73          90.15          30.14          108.8          98.01          124.6
     1.845              -42.77          38.84          68.21          68.32          6.733          -13.8          89.41          30.63          110.8          97.44          124.4
